<svg height="512" viewBox="0 0 64 64" width="512" xmlns="http://www.w3.org/2000/svg" xmlns:xlink="http://www.w3.org/1999/xlink"><linearGradient id="linear-gradient" gradientUnits="userSpaceOnUse" x1="2" x2="62" y1="31.532" y2="31.532"><stop offset="0" stop-color="#0fdcdd"/><stop offset="1" stop-color="#46a1e8"/></linearGradient><g id="_05_Web_development" data-name="05 Web development"><path d="m20 33a6 6 0 1 0 6 6 6.0066 6.0066 0 0 0 -6-6zm0 10a4 4 0 1 1 4-4 4.0043 4.0043 0 0 1 -4 4zm21.8694-17.1733-5.7994 2.2333 5.8057 2.2808c1.2142.477.61 2.8384-.7638 2.2424l-6.8246-2.9618a1.7022 1.7022 0 0 1 .0014-3.1024l6.8241-2.9542c1.3801-.5973 1.9736 1.7933.7566 2.2619zm2.2288 9.0672c-.726-.3283-.4284-1.1861-.2982-1.7939l2.57-10.59c.1495-.6554.2786-1.47 1.1-1.47 1.1644 0 .953 1.0793.75 1.86l-2.57 10.59c-.17.7457-.5169 1.8719-1.5519 1.4039zm6.0554-4.5339 5.8164-2.29-5.81-2.243c-1.22-.471-.6148-2.8262.7566-2.234l6.8317 2.95a1.6878 1.6878 0 0 1 .0056 3.0759l-6.8339 2.9806c-1.3725.5986-1.9807-1.7608-.7664-2.2395zm-10.1536-14.36h-24a1.0006 1.0006 0 0 1 0-2h24a1.0006 1.0006 0 0 1 0 2zm18-1a1.5 1.5 0 1 1 -1.5-1.5 1.5 1.5 0 0 1 1.5 1.5zm-4 0a1.5 1.5 0 1 1 -1.5-1.5 1.5 1.5 0 0 1 1.5 1.5zm5-5h-54a3.0033 3.0033 0 0 0 -3 3v30a3.0033 3.0033 0 0 0 3 3h2.4385a4.42 4.42 0 0 1 .5224-1.8052c-.028-.0646-.0551-.13-.0822-.1948h-2.8787a1.001 1.001 0 0 1 -1-1v-23h56v23a1.001 1.001 0 0 1 -1 1h-26.8792c-.027.0652-.054.13-.0818.1948a4.418 4.418 0 0 1 .5222 1.8052h26.4388a3.0033 3.0033 0 0 0 3-3v-30a3.0033 3.0033 0 0 0 -3-3zm1 8h-56v-5a1.001 1.001 0 0 1 1-1h54a1.001 1.001 0 0 1 1 1zm-28.2295 17.9971-1.11-.1333a11.2331 11.2331 0 0 0 -.9238-2.2217l.2939-.4258c1.9548-2.3564-1.9009-6.19-4.2471-4.2471l-.4258.2944a11.2471 11.2471 0 0 0 -2.2217-.9243l-.127-1.0571c-.2074-3.0883-5.808-3.1523-6.0127-.0522l-.1328 1.11a11.2077 11.2077 0 0 0 -2.2207.9238c-1.5189-1.05-2.7786-1.0774-4.1172.2612s-1.3111 2.5972-.2617 4.1172a11.2373 11.2373 0 0 0 -.9239 2.2221l-1.0566.1274c-3.0886.2038-3.1545 5.8113-.0537 6.0112l1.11.1333a11.2331 11.2331 0 0 0 .9238 2.2217l-.2939.4258c-1.95 2.3506 1.8943 6.1958 4.2471 4.2471l.4258-.2944a11.2471 11.2471 0 0 0 2.2217.9243l.127 1.0571c.2074 3.0883 5.808 3.1523 6.0127.0522l.1328-1.11a11.2077 11.2077 0 0 0 2.2207-.9238l.4258.2944c2.3516 1.947 6.1985-1.8947 4.2471-4.2471l-.2939-.4258a11.2373 11.2373 0 0 0 .9238-2.2222l1.0566-.1274c3.2832.0002 3.2832-6.011.0537-6.011zm-2.88 5.0054a6.2676 6.2676 0 0 1 -1.1865 2.8682 1 1 0 0 0 .0244 1.1006l.6855.9907c.4628.6731-.7838 1.9156-1.4521 1.4521l-.99-.6851a1.0087 1.0087 0 0 0 -1.1006-.0249 9.27 9.27 0 0 1 -2.8691 1.1865c-.884.2021-.82 1.2684-.9031 1.97-.1021.856-.179 1.1394-1.099 1.1394-.8618 0-.9929-.2622-1.0908-1.08-.0851-.71-.015-1.8247-.9111-2.03a9.27 9.27 0 0 1 -2.8691-1.1865c-.9558-.5981-2.1748 1.368-2.7871.7593l-.8047-.8057c-.5941-.5923 1.3473-1.85.7588-2.7871a9.2689 9.2689 0 0 1 -1.1865-2.8682c-.3865-1.6956-3.2095.0309-3.1713-2.0018.0378-2.0214 2.7856-.3094 3.1711-2.0023a9.2689 9.2689 0 0 1 1.1865-2.8682c.6251-.9951-.8048-1.5619-.81-2.4457a1.2158 1.2158 0 0 1 1.6548-1.0266c.602.3516 1.2252 1.1163 1.9879.6387a9.27 9.27 0 0 1 2.8691-1.1865c1.6955-.3877-.03-3.2086 2.0024-3.1713 2.0207.0371.3093 2.7843 2.0015 3.1713a9.27 9.27 0 0 1 2.8691 1.1865c.692.4343 1.3323-.1936 1.877-.562.5972-.4039.8212-.2864 1.3125.2056.4594.46.6307.6666.2438 1.2571-.37.5651-1.0534 1.2115-.6 1.9328a6.2676 6.2676 0 0 1 1.1865 2.8682c.1096 2.0024 3.1096.0024 3.1096 2.0024s-3 0-3.1094 2.0024z" fill="url(#linear-gradient)"/></g></svg>